<?xml version="1.0" encoding="UTF-8"?>
<svg width="210mm" height="297mm" version="1.1" viewBox="0 0 210 297" xmlns="http://www.w3.org/2000/svg">
 <path d="m63.316 139.88c-3.7277 3.1354-6.677 6.0602-7.9568 8.5338 0.52985-0.35475 0.99097-0.57182 1.3886-0.66196-2.6746 2.8406-4.3526 6.1794-5.0428 10.012 0.22516-0.22651 0.40074-0.35378 0.74994-0.38183-0.55936 3.0427-2.1852 5.7133-2.571 8.7559l0.68318-1.2167c-0.09848 0.94313-0.69294 1.8366-0.29536 2.8293 0.2685-1.6652 0.86519-3.2573 1.7288-4.7899-1.0885 3.4411-2.1182 6.898-2.4745 10.539l1.0845-2.1457-1.8472 8.4551 1.8159-3.1706-3.2551 11.141 0.64664-0.90006-0.15232 8.7133 1.3349-3.4891c-0.61021 3.5499-0.74679 7.4156-0.36489 11.627 0.03577-0.76695 0.14348-1.4801 0.44386-2.0486 0.2046 2.6958 0.66786 5.4884 1.9317 8.5813 0.01394-0.4639 0.16073-0.82823 0.43926-1.0937l1.0573 5.805 0.84061-1.2552 0.04979 5.2034 0.37171-0.24961 0.7932 6.1461 0.47977-0.27712c1.3501 5.2111 4.0867 10.653 7.03 16.13-2.0272-6.1809-2.5484-11.725-1.136-16.45l13.483 23.552c2.8479-6.0373 6.2914-10.433 10.006-14.109 2.516-2.4892 5.5514-4.3931 8.5834-6.067 1.5486-0.85485 3.2065-1.3566 4.5665-2.4517 2.5093-2.0204 2.8118-5.7688 6.1312-8.0609 1.5417 9.1877 0.67651 18.161-3.7349 26.82 4.8846-5.2162 7.9747-12.137 7.5668-22.381 4.3462 6.2844 5.6979 13.053 5.1493 20.396 0.48953-1.6291 1.4254-1.8691 2.2126-2.2827 0.24239 1.0741 0.0135 1.9744 0.72721 3.2222 1.2224-1.2567 1.7967-2.8838 2.0927-4.6699 0.46363 0.5883 0.76319 1.2381 0.96232 1.9256 0.31739-0.50602 0.49096-1.0839 0.54374-1.7223 1.0988 1.329 1.8603 2.6448 2.0993 3.9405 0.30946-1.4154 0.49395-2.9038 0.4065-4.5507 1.3442 0.95393 2.4542 2.0698 3.3685 3.3214 0.47723-0.88673 0.56536-1.9924 0.51308-3.1769 1.0726 0.93171 2.2861 1.5464 3.6234 1.8827-1.0708-0.74507-1.8608-1.5567-2.2369-2.4668 1.514 1.1814 3.1766 2.2264 4.5418 3.5442-0.43703-0.84831-0.74596-1.6385-0.81901-2.3214l4.6166 3.5001-2.6294-5.0035c1.2473 0.68228 2.4946 1.746 3.7419 2.8601-0.66839-0.81479-1.1584-1.6073-1.2975-2.3559 1.9809 0.78594 3.6106 2.0106 5.1932 3.2946-0.56843-0.80729-0.97768-1.5806-1.0829-2.2886 1.321 0.66765 2.3692 2.0795 3.591 2.4866-0.64402-0.87548-1.0193-1.6914-1.068-2.4346l3.1169 2.0554-0.42037-1.0074 1.4036 0.63666-1.5838-2.5771 5.9727 3.3439-1.775-2.6902c2.3098 0.25652 4.9172 1.778 7.4502 2.3323-0.41129-0.56549-1.666-1.0071-1.9036-1.6223 3.9054 0.55793 7.8436 0.85148 11.815 0.88014-2.8445-1.4971-6.3405-3.0429-9.7142-4.2092 1.7679 0.25297 3.4483 0.15592 5.0839-0.12031-2.2259-1.0834-4.6501-1.8691-6.9752-2.8037 0.10605-0.13306 0.34298-0.1914 0.68069-0.1923-0.89016-0.29601-1.7566-0.67942-2.5972-1.1572 0.053-0.0935 0.17602-0.14705 0.34478-0.17452l-4.4324-2.6151 0.90033-0.14754-1.861-1.0055 3.0442-0.33766-10.327-3.7607 6.3901-1.4374c-4.3594-0.64942-8.3055-1.5284-11.474-2.8394 1.1131 0.18793 1.9284 0.67349 3.3392 0.56377-1.2121-1.3841-3.218-1.8008-4.8271-2.7012 0.35369-0.0498 0.7199-2.6e-4 1.0612-0.14933-2.9942-2.0828-5.6502-4.3531-8.0488-6.7666 0.41447-0.29453 1.0646 0.0807 1.5411-0.17656-2.8989-2.3063-5.225-4.947-7.6888-7.5073 0.44362-0.28139 0.96173-0.0604 1.3868-0.30465-0.56394-0.22553-0.95888-0.49807-1.225-0.80639 0.0194-0.1338 0.29311-0.0815 0.41174-0.17812-7.2817-5.1551-12.533-12.281-15.316-21.802l1.3597 1.1082c-0.65241-1.187-0.96554-2.3435-1.2145-3.4345-0.21974-0.96248-0.41714-1.8696-0.36298-2.7667 0.0895-1.4802 1.0651-2.7121 1.7656-4.0469 0.46395-0.88394 0.89866-1.8649 1.1757-2.7412 3.334 1.3563 6.9098 3.8045 9.9193 6.4738 3.0098 2.6694 5.7227 5.8502 8.1389 9.5422 0.63751 0.39953-0.38444 1.786-0.23821 2.4588 0.27932 1.2847 1.4206 2.009 3.649 2.0265 0.8985 1.5745 1.9865 2.6017 3.2719 3.126 0.19872 0.0656 0.39478-0.11864 0.58814-0.1791 2.0567-0.64349 3.8115-1.3855 5.3709-2.4162 0.88318 0.0741 1.8268 0.0574 2.8207-0.0341 5.1966 2.8281 8.6754 6.0681 11.009 9.5825 3.0505 4.595 4.5479 9.6594 4.9622 14.886 0.21209 2.6759 0.14002 5.3944-0.12991 8.1142 2.8977-6.1535 2.1776-10.94 1.2995-16.567-0.42886-2.7478-1.3323-5.5336-2.9475-8.3759 5.811 3.5836 7.7809 7.9478 9.8952 12.283-0.96631-5.0637-3.0917-9.636-6.6502-13.6-1.6112-1.795-3.772-3.3803-5.9964-4.9154-2.4431-1.686-5.016-3.2939-8.2632-4.6388 0.75096-1.4602 1.259-2.9203 1.6311-4.3803-0.52453 0.82463-1.2764 1.4218-2.2555 1.7918 0.54877-0.77611 0.96271-1.5971 1.2844-2.4488-0.54594 0.7371-1.1676 1.171-1.865 1.302 0.84413-0.99738 1.3093-1.9946 1.3956-2.9918-1.0367 1.0065-2.2248 1.6339-3.5646 1.8826 0.94351-1.0052 1.5483-2.0104 1.6583-3.0151-1.0053 1.1363-2.1457 1.5525-3.3783 1.476l1.047-1.8375c-3.4929-0.0727-3.461-2.3058-5.1915-3.4586 1.008-1.2219 2.414-2.188 3.024-3.6657-1.3053 1.0931-2.7243 1.6934-4.257 1.8011 1.1386-1.4015 1.9337-2.803 2.3144-4.2044-1.4897 1.4102-2.8655 1.9106-4.1276 1.5017-0.8259-0.95941-0.97396-1.8143-0.81391-2.6218 1.5007-1.2649 2.5701-2.5606 3.0096-3.9011-2.4326 1.2149-3.7445 1.5815-3.9358 1.0997-0.19135-0.48165 1.2298-1.8117 2.7878-3.99 0.567 0.31327 1.4348 0.62662 2.4395 0.94004-1.2925-0.037-2.4568-0.01-2.7246 0.46575 6.0537 1.4558 10.3 2.9433 10.744 4.4972 0.26686 0.93239-0.83476 1.8887-3.7354 2.8765 1.6161 0.46966 3.2322 0.43259 4.8486-0.11115-0.43852 0.68551-2.2151 1.6466-3.5644 2.0284 2.0982 0.14071 4.1964-0.17775 6.2949-1.0502-0.87164 2.7266-3.8626 5.2523-7.9862 6.8643 4.0993 0.38354 8.1986-1.279 12.298-4.3414 0.37997 2.5738-0.77092 4.7168-3.6805 6.277 2.4439-0.13118 4.5239-0.88162 5.9555-2.7358 0.99891 1.4105 1.0362 3.423 0.41556 5.8472 2.706-2.0746 5.5639-5.5173 8.1181-6.2236-0.51644-4.5562 0.47289-4.0814 0.45818-5.75-9e-3 -1.0011-0.0545-1.31-0.22971-2.2926-0.34118-1.912-1.0308-3.7855-2.1969-5.6058 0.39338 1.388 0.17941 2.5228-0.64194 3.4043-3.1421-2.357-3.74-5.1632-5.118-7.8291-0.69728-1.3489-1.996-2.2546-2.532-3.6265-0.45286-1.1591-0.39331-2.6681-0.54219-3.9688-0.10861-0.94911-0.43492-1.6988-0.6264-2.5594-0.38431-1.7275-1.5506-2.0224-2.5486-3.0274-1.1665-1.1747-1.5906-2.9431-1.8904-4.6121-0.2826-1.573-0.85185-4.5359 1.2972-6.9135-1.2596 0.18645-2.4132 1.54-3.5071 3.5482l-1.3124-4.3632c0.79187-4.316 0.92073-7.9496 0.60624-11.127-0.58004-5.86-2.6685-10.167-4.8873-14.34 2.1627 5.3429 3.6002 10.505 2.447 15.02-0.64514-6.4476-2.2015-11.073-4.1716-14.87 1.0239 3.3871 1.8302 6.8106 1.8595 10.364-4.296-12.796-11.998-23.212-16.139-33.047-2.4126-5.7296-4.9981-10.736-6.886-15.575-2.2785-5.8404-3.6748-11.438-4.2742-17.77-2.0749 6.6577-1.3803 14.904 0.49816 23.968 1.351 6.5187 4.5326 12.067 7.5058 20.233 0.91019 2.4996 1.2154 5.2446 2.6135 8.3375-9.8718-5.6033-14.671-12.427-20.537-16.519-4.0137-2.7996-7.4078-4.7039-9.8508-5.2346 5.144 3.1754 10.126 5.8004 14.031 11.794 4.271 6.5554 10.244 11.765 14.255 19.908-9.2213-5.8306-17.467-13.928-24.764-24.23-7.4439-10.509-15.437-23.31-19.4-38.338-0.26863 9.175-0.02617 18.511 4.1109 29.078 2.6114 6.6697 6.7746 13.829 13.341 21.748-10.625-5.2885-21.048-9.0092-30.864-7.9814-6.0882 0.63751-12.762 2.3503-17.465 8.1522 6.6544-5.3617 17.401-4.1057 24.487-2.3347 8.0299 2.0072 15.326 5.6112 20.53 14.289-7.7209-1.3007-14.379-3.7328-21.102-4.62-8.7464-1.1545-16.907-1.0822-24.256 0.69218 10.241-1.168 20.647 1.792 31.252 9.7342-7.1369 0.0107-12.461 0.86754-16.545 2.303-6.5847 2.3144-10.649 5.9837-12.487 10.334 5.7791-7.8346 14.584-10.039 23.715-9.2234-6.0675 1.1101-11.991 3.3028-16.116 7.1946 5.4355-3.3075 11.504-4.8436 18.529-3.6068-6.5039 1.4846-12.039 3.5909-16.66 6.2843-4.8102 2.8039-8.6293 6.2439-11.518 10.281 7.1198-4.8131 13.599-6.9751 19.469-6.6191-2.5852 2.0603-4.8378 4.1595-5.4876 6.4476 1.0938-0.92318 2.2519-1.6968 3.544-2.1569z" fill="#1b1918" fill-rule="evenodd" stroke-width=".26458"/>
</svg>
